<?xml version="1.0" standalone="no"?>
<!DOCTYPE svg PUBLIC "-//W3C//DTD SVG 20010904//EN"
 "http://www.w3.org/TR/2001/REC-SVG-20010904/DTD/svg10.dtd">
<svg version="1.0" xmlns="http://www.w3.org/2000/svg"
 width="500.000000pt" height="500.000000pt" viewBox="0 0 500.000000 500.000000"
 preserveAspectRatio="xMidYMid meet">
<metadata>
Created by potrace 1.11, written by Peter Selinger 2001-2013
</metadata>
<g transform="translate(0.000000,500.000000) scale(0.100000,-0.100000)"
fill="#000000" stroke="none">
<path d="M2367 4404 c-1 -1 -33 -5 -72 -9 -38 -3 -79 -8 -90 -10 -11 -3 -36
-7 -55 -10 -19 -2 -46 -7 -60 -10 -14 -3 -36 -8 -50 -11 -176 -35 -457 -157
-634 -276 -321 -216 -581 -533 -715 -870 -25 -62 -27 -63 -113 -73 -103 -12
-226 -67 -321 -146 -72 -59 -160 -194 -187 -284 -34 -115 -35 -275 -2 -380 78
-253 310 -433 577 -449 15 -1 28 -21 56 -87 54 -131 162 -318 238 -412 234
-291 506 -496 832 -625 366 -146 773 -176 1159 -87 14 3 36 8 50 11 93 19 400
141 400 158 0 3 -27 30 -60 62 -33 31 -60 60 -60 63 0 3 18 14 40 23 l40 17
58 -61 c90 -95 219 -191 372 -276 25 -14 52 -30 61 -35 13 -8 37 1 103 37 201
108 360 240 462 382 126 175 149 368 64 534 -57 113 -210 222 -328 233 -17 2
-34 6 -37 9 -3 2 6 31 19 64 l24 59 69 -2 c45 -1 98 -11 148 -28 92 -30 122
-27 229 27 229 115 360 334 352 588 -8 292 -207 532 -492 597 -43 10 -90 18
-103 17 -19 -1 -27 7 -43 45 -166 389 -408 682 -744 901 -71 46 -242 135 -344
178 -87 37 -283 93 -374 106 -21 4 -41 8 -45 10 -16 10 -414 29 -424 20z"/>
</g>
</svg>
